<svg xmlns="http://www.w3.org/2000/svg" viewBox="0 0 400 300" data-imageid="coding-flatline-2715e" imageName="Coding" class="illustrations_image" style="width: 188px;"><g id="_87_coding" data-name="#87_coding"><rect x="185.76" y="183.14" width="37.73" height="9.57" fill="#fff"/><path d="M113.64,145.2s-1.33,31.69,2.23,42.13h16.26a3.92,3.92,0,0,1,3.74,2.77l.88,2.91H95.4a25.23,25.23,0,0,1-7.66-7.93C85,180.2,86.68,145.2,86.68,145.2Z" fill="#fff"/><path d="M136.75,193.51H95.4a.6.6,0,0,1-.27-.07,25.62,25.62,0,0,1-7.83-8.11c-2.81-5-1.19-38.72-1.12-40.15a.5.5,0,0,1,.5-.48h27a.48.48,0,0,1,.36.16.47.47,0,0,1,.14.37c0,.31-1.26,31,2.09,41.6h15.9a4.37,4.37,0,0,1,4.21,3.13l.88,2.91a.49.49,0,0,1-.07.44A.51.51,0,0,1,136.75,193.51Zm-41.21-1h40.53l-.68-2.26a3.39,3.39,0,0,0-3.26-2.42H115.87a.49.49,0,0,1-.47-.34c-3.35-9.79-2.44-37.49-2.28-41.79h-26c-.58,12.2-1.09,35.42,1,39.14A24.81,24.81,0,0,0,95.54,192.51Z" fill="#231f20"/><path d="M88.66,179c0,6.6,2,8.58,4.62,8.58h10.38a3.49,3.49,0,0,1,3.27,2.29l1.15,3.13h-16c-4.09,0-7-6.21-7.13-12.81s0-35,0-35h3.57S88.66,172.4,88.66,179Z" fill="#231f20"/><path d="M108.08,193.51h-16c-4.61,0-7.5-6.76-7.63-13.3s0-34.72,0-35a.51.51,0,0,1,.5-.5h3.57a.51.51,0,0,1,.5.5c0,.27.13,27.28.13,33.81,0,8.08,3.1,8.08,4.12,8.08h10.38a4,4,0,0,1,3.74,2.62l1.15,3.13a.54.54,0,0,1-.06.46A.51.51,0,0,1,108.08,193.51ZM85.46,145.7c0,3.83-.12,28.44,0,34.49.14,6.79,3.11,12.32,6.63,12.32h15.27l-.9-2.46a3,3,0,0,0-2.8-2H93.28c-3.44,0-5.12-3-5.12-9.08s-.11-29.57-.13-33.31Z" fill="#231f20"/><path d="M144.48,71.08l6.26,71.54a5.67,5.67,0,0,1-5.6,6.4H59.84a7,7,0,0,1-6.72-6.4L46.86,71.08a5.66,5.66,0,0,1,5.6-6.4h85.3A7,7,0,0,1,144.48,71.08Z" fill="#231f20"/><path d="M145.14,149.52H59.84a7.52,7.52,0,0,1-7.22-6.86L46.36,71.12a6.49,6.49,0,0,1,1.62-5,6,6,0,0,1,4.48-1.94h85.3A7.51,7.51,0,0,1,145,71l6.26,71.54a6.46,6.46,0,0,1-1.63,5A6,6,0,0,1,145.14,149.52ZM52.46,65.18a5,5,0,0,0-3.74,1.61A5.49,5.49,0,0,0,47.36,71l6.26,71.54a6.49,6.49,0,0,0,6.22,6h85.3a5,5,0,0,0,3.73-1.62,5.46,5.46,0,0,0,1.37-4.24L144,71.12h0a6.48,6.48,0,0,0-6.22-5.94Z" fill="#231f20"/><path d="M144.77,70.79l6,68.3a5.41,5.41,0,0,1-5.34,6.11H64a6.69,6.69,0,0,1-6.42-6.11l-6-68.3a5.4,5.4,0,0,1,5.34-6.11h81.45A6.69,6.69,0,0,1,144.77,70.79Z" fill="#fff"/><path d="M145.4,145.7H64A7.2,7.2,0,0,1,57,139.14l-6-68.31A6.18,6.18,0,0,1,52.61,66a5.74,5.74,0,0,1,4.29-1.86h81.45a7.18,7.18,0,0,1,6.91,6.56h0l6,68.31a6.16,6.16,0,0,1-1.56,4.79A5.73,5.73,0,0,1,145.4,145.7ZM56.9,65.18a4.75,4.75,0,0,0-3.55,1.53,5.23,5.23,0,0,0-1.3,4l6,68.31A6.17,6.17,0,0,0,64,144.7H145.4a4.75,4.75,0,0,0,3.54-1.53,5.18,5.18,0,0,0,1.3-4l-6-68.31a6.18,6.18,0,0,0-5.92-5.65Z" fill="#231f20"/><path d="M149.74,127.62l1,11.47a5.41,5.41,0,0,1-5.34,6.11H64a6.69,6.69,0,0,1-6.42-6.11l-1-11.47Z" fill="#fff"/><path d="M145.4,145.7H64A7.2,7.2,0,0,1,57,139.14l-1-11.47a.52.52,0,0,1,.13-.38.48.48,0,0,1,.37-.17h93.21a.51.51,0,0,1,.5.46l1,11.47a6.16,6.16,0,0,1-1.56,4.79A5.73,5.73,0,0,1,145.4,145.7ZM57.07,128.12l1,10.93A6.17,6.17,0,0,0,64,144.7H145.4a4.75,4.75,0,0,0,3.54-1.53,5.18,5.18,0,0,0,1.3-4l-1-11Z" fill="#231f20"/><ellipse cx="103.9" cy="136.41" rx="3.7" ry="4.08" transform="translate(-58.36 80.95) rotate(-33.83)" fill="#fff"/><path d="M104.25,140.88a4.84,4.84,0,0,1-4.65-4.42,4.18,4.18,0,0,1,1.06-3.25,3.88,3.88,0,0,1,2.9-1.26,4.83,4.83,0,0,1,4.64,4.42h0a4.19,4.19,0,0,1-1,3.25A3.89,3.89,0,0,1,104.25,140.88Zm-.69-7.93a2.92,2.92,0,0,0-2.17.93,3.23,3.23,0,0,0-.79,2.49,3.82,3.82,0,0,0,3.65,3.51,2.87,2.87,0,0,0,2.16-.94,3.2,3.2,0,0,0,.8-2.48h0A3.82,3.82,0,0,0,103.56,133Z" fill="#231f20"/><path d="M58.08,69.24H138a3.48,3.48,0,0,1,3.33,3.18l4.21,48.18a2.81,2.81,0,0,1-2.77,3.19H62.85a3.49,3.49,0,0,1-3.33-3.19L55.31,72.42A2.81,2.81,0,0,1,58.08,69.24Z" fill="#231f20"/><path d="M71.52,75.13H63.58a.5.5,0,1,1,0-1h7.94a.5.5,0,0,1,0,1Z" fill="#fff"/><path d="M89.42,75.13H73.57a.5.5,0,0,1,0-1H89.42a.5.5,0,1,1,0,1Z" fill="#68e1fd" class="target-color"/><path d="M95,78.24H79.18a.5.5,0,0,1-.5-.5.5.5,0,0,1,.5-.5H95a.5.5,0,0,1,.5.5A.5.5,0,0,1,95,78.24Z" fill="#68e1fd" class="target-color"/><path d="M73.51,78.24H65.57a.5.5,0,0,1-.5-.5.5.5,0,0,1,.5-.5h7.94a.5.5,0,0,1,.5.5A.5.5,0,0,1,73.51,78.24Z" fill="#fff"/><path d="M75.5,81.34H67.56a.5.5,0,0,1-.5-.5.5.5,0,0,1,.5-.5H75.5a.5.5,0,0,1,.5.5A.5.5,0,0,1,75.5,81.34Z" fill="#fff"/><path d="M98,81.34H78.15a.5.5,0,0,1-.5-.5.5.5,0,0,1,.5-.5H98a.5.5,0,0,1,.5.5A.5.5,0,0,1,98,81.34Z" fill="#68e1fd" class="target-color"/><path d="M77.49,84.45H69.55a.5.5,0,0,1,0-1h7.94a.5.5,0,0,1,0,1Z" fill="#fff"/><path d="M102.21,84.45H78.63a.5.5,0,0,1,0-1h23.58a.5.5,0,0,1,0,1Z" fill="#68e1fd" class="target-color"/><path d="M75.51,87.56H67.57a.5.5,0,0,1-.5-.5.5.5,0,0,1,.5-.5h7.94a.5.5,0,0,1,.5.5A.5.5,0,0,1,75.51,87.56Z" fill="#fff"/><path d="M89.92,87.56H77.13a.51.51,0,0,1-.5-.5.5.5,0,0,1,.5-.5H89.92a.5.5,0,0,1,.5.5A.5.5,0,0,1,89.92,87.56Z" fill="#68e1fd" class="target-color"/><path d="M107.59,87.56H94.81a.5.5,0,0,1-.5-.5.5.5,0,0,1,.5-.5h12.78a.5.5,0,0,1,.5.5A.5.5,0,0,1,107.59,87.56Z" fill="#68e1fd" class="target-color"/><path d="M75.64,90.67H67.7a.5.5,0,0,1-.5-.5.5.5,0,0,1,.5-.5h7.94a.5.5,0,0,1,.5.5A.51.51,0,0,1,75.64,90.67Z" fill="#fff"/><path d="M90.05,90.67H78.88a.5.5,0,0,1-.5-.5.5.5,0,0,1,.5-.5H90.05a.5.5,0,0,1,.5.5A.51.51,0,0,1,90.05,90.67Z" fill="#68e1fd" class="target-color"/><path d="M96.5,90.67H91.93a.5.5,0,0,1-.5-.5.5.5,0,0,1,.5-.5H96.5a.5.5,0,0,1,.5.5A.51.51,0,0,1,96.5,90.67Z" fill="#68e1fd" class="target-color"/><path d="M75.76,93.77H67.82a.5.5,0,0,1-.5-.5.51.51,0,0,1,.5-.5h7.94a.5.5,0,0,1,.5.5A.5.5,0,0,1,75.76,93.77Z" fill="#fff"/><path d="M94.18,93.77H77.87a.5.5,0,0,1-.5-.5.5.5,0,0,1,.5-.5H94.18a.5.5,0,0,1,.5.5A.5.5,0,0,1,94.18,93.77Z" fill="#68e1fd" class="target-color"/><path d="M104,93.77H96.1a.5.5,0,0,1-.5-.5.5.5,0,0,1,.5-.5H104a.5.5,0,0,1,.5.5A.5.5,0,0,1,104,93.77Z" fill="#68e1fd" class="target-color"/><path d="M70.3,96.88H66.08a.5.5,0,1,1,0-1H70.3a.5.5,0,1,1,0,1Z" fill="#fff"/><path d="M92.18,96.88H73.78a.5.5,0,0,1,0-1h18.4a.5.5,0,0,1,0,1Z" fill="#68e1fd" class="target-color"/><path d="M74.15,100H66.21a.5.5,0,0,1-.5-.5.5.5,0,0,1,.5-.5h7.94a.5.5,0,0,1,.5.5A.5.5,0,0,1,74.15,100Z" fill="#fff"/><path d="M83.35,103.09H67.51a.5.5,0,0,1-.5-.5.5.5,0,0,1,.5-.5H83.35a.5.5,0,0,1,.5.5A.5.5,0,0,1,83.35,103.09Z" fill="#fff"/><path d="M97,103.09H86a.5.5,0,0,1-.5-.5.51.51,0,0,1,.5-.5H97a.5.5,0,0,1,.5.5A.5.5,0,0,1,97,103.09Z" fill="#68e1fd" class="target-color"/><path d="M112.21,103.09H98.57a.5.5,0,0,1-.5-.5.51.51,0,0,1,.5-.5h13.64a.5.5,0,0,1,.5.5A.5.5,0,0,1,112.21,103.09Z" fill="#68e1fd" class="target-color"/><path d="M91.42,106.2H68.32a.5.5,0,0,1,0-1h23.1a.5.5,0,0,1,0,1Z" fill="#fff"/><path d="M103.39,106.2H93a.5.5,0,0,1,0-1h10.39a.5.5,0,0,1,0,1Z" fill="#68e1fd" class="target-color"/><path d="M136.05,106.2h-30.9a.5.5,0,0,1,0-1h30.9a.5.5,0,0,1,0,1Z" fill="#68e1fd" class="target-color"/><path d="M79.28,109.31H68.36a.5.5,0,0,1-.5-.5.5.5,0,0,1,.5-.5H79.28a.5.5,0,0,1,.5.5A.5.5,0,0,1,79.28,109.31Z" fill="#fff"/><path d="M89.5,109.31h-8a.51.51,0,0,1-.5-.5.5.5,0,0,1,.5-.5h8a.5.5,0,0,1,.5.5A.51.51,0,0,1,89.5,109.31Z" fill="#68e1fd" class="target-color"/><path d="M99.71,109.31h-8a.51.51,0,0,1-.5-.5.5.5,0,0,1,.5-.5h8a.5.5,0,0,1,.5.5A.51.51,0,0,1,99.71,109.31Z" fill="#68e1fd" class="target-color"/><path d="M87.79,112.42H68.48a.51.51,0,0,1-.5-.5.5.5,0,0,1,.5-.5H87.79a.5.5,0,0,1,.5.5A.5.5,0,0,1,87.79,112.42Z" fill="#fff"/><path d="M99.83,112.42H90.18a.5.5,0,0,1-.5-.5.5.5,0,0,1,.5-.5h9.65a.5.5,0,0,1,.5.5A.5.5,0,0,1,99.83,112.42Z" fill="#68e1fd" class="target-color"/><path d="M116.91,112.42H102.2a.51.51,0,0,1-.5-.5.5.5,0,0,1,.5-.5h14.71a.5.5,0,0,1,.5.5A.5.5,0,0,1,116.91,112.42Z" fill="#68e1fd" class="target-color"/><path d="M133.17,112.42H118.46a.5.5,0,0,1-.5-.5.5.5,0,0,1,.5-.5h14.71a.5.5,0,0,1,.5.5A.51.51,0,0,1,133.17,112.42Z" fill="#68e1fd" class="target-color"/><path d="M85,115.52H73.49a.5.5,0,0,1-.5-.5.51.51,0,0,1,.5-.5H85a.5.5,0,0,1,.5.5A.5.5,0,0,1,85,115.52Z" fill="#fff"/><path d="M98.7,115.52H87.18a.5.5,0,0,1-.5-.5.5.5,0,0,1,.5-.5H98.7a.51.51,0,0,1,.5.5A.5.5,0,0,1,98.7,115.52Z" fill="#68e1fd" class="target-color"/><path d="M112.47,115.52H101a.5.5,0,0,1-.5-.5.5.5,0,0,1,.5-.5h11.52a.5.5,0,0,1,.5.5A.5.5,0,0,1,112.47,115.52Z" fill="#68e1fd" class="target-color"/><path d="M126.75,115.87H115.23a.5.5,0,0,1,0-1h11.52a.5.5,0,0,1,0,1Z" fill="#68e1fd" class="target-color"/><path d="M83.27,118.63H75.33a.5.5,0,1,1,0-1h7.94a.5.5,0,0,1,0,1Z" fill="#fff"/><path d="M93.08,118.63H85.14a.5.5,0,1,1,0-1h7.94a.5.5,0,0,1,0,1Z" fill="#68e1fd" class="target-color"/><path d="M111.43,118.94h0L95,118.63a.5.5,0,0,1,0-1h0l16.41.31a.5.5,0,0,1,.49.51A.49.49,0,0,1,111.43,118.94Z" fill="#68e1fd" class="target-color"/><path d="M116.15,84.45H105.42a.5.5,0,0,1,0-1h10.73a.5.5,0,0,1,0,1Z" fill="#68e1fd" class="target-color"/><path d="M124.07,84.48a36.43,36.43,0,0,1-3.81,0,.49.49,0,0,1-.33-.63.5.5,0,0,1,.56-.34c.54,0,7.53,0,12.14,0h0a.5.5,0,0,1,0,1Z" fill="#68e1fd" class="target-color"/><path d="M114.19,78.24H98.6a.51.51,0,0,1-.5-.5.5.5,0,0,1,.5-.5h15.59a.5.5,0,0,1,.5.5A.51.51,0,0,1,114.19,78.24Z" fill="#68e1fd" class="target-color"/><path d="M132.83,78.24H117.32a.5.5,0,0,1-.5-.5.5.5,0,0,1,.5-.5h15.51a.5.5,0,0,1,.5.5A.5.5,0,0,1,132.83,78.24Z" fill="#68e1fd" class="target-color"/><path d="M99.69,75.14c-3.16,0-5.36,0-5.46,0a.5.5,0,0,1-.42-.57.51.51,0,0,1,.54-.42c.55,0,13.11,0,17.92,0h0a.5.5,0,0,1,.5.5.5.5,0,0,1-.5.5Z" fill="#68e1fd" class="target-color"/><path d="M116.52,75.13a.51.51,0,0,1-.45-.29.49.49,0,0,1,.24-.66c.13-.06.32-.16,10.88-.05a.5.5,0,0,1,.5.5.52.52,0,0,1-.51.5c-3.79,0-10-.08-10.54,0Z" fill="#fff"/><path d="M102.34,96.88h-8a.5.5,0,0,1,0-1h8a.5.5,0,0,1,0,1Z" fill="#68e1fd" class="target-color"/><path d="M84,100H78.12a.5.5,0,0,1-.5-.5.5.5,0,0,1,.5-.5H84a.5.5,0,0,1,.5.5A.5.5,0,0,1,84,100Z" fill="#68e1fd" class="target-color"/><path d="M100.32,100h-14a.5.5,0,0,1-.5-.5.5.5,0,0,1,.5-.5h14a.5.5,0,0,1,.5.5A.5.5,0,0,1,100.32,100Z" fill="#fff"/><path d="M130.35,100H103.14a.5.5,0,0,1-.5-.5.5.5,0,0,1,.5-.5h27.21a.5.5,0,0,1,.5.5A.5.5,0,0,1,130.35,100Z" fill="#68e1fd" class="target-color"/><path d="M279.51,145.2s1.33,31.69-2.24,42.13H261a3.9,3.9,0,0,0-3.73,2.77L256.4,193h41.35a25.23,25.23,0,0,0,7.66-7.93c2.78-4.88,1.06-39.88,1.06-39.88Z" fill="#fff"/><path d="M297.75,193.51H256.4a.48.48,0,0,1-.4-.2.53.53,0,0,1-.08-.44l.88-2.91a4.38,4.38,0,0,1,4.21-3.13h15.9c3.36-10.56,2.11-41.29,2.1-41.6a.5.5,0,0,1,.13-.37.52.52,0,0,1,.37-.16h27a.51.51,0,0,1,.5.48c.07,1.43,1.69,35.2-1.12,40.15a25.6,25.6,0,0,1-7.84,8.11A.59.59,0,0,1,297.75,193.51Zm-40.68-1H297.6a24.81,24.81,0,0,0,7.38-7.67c2.11-3.72,1.59-26.94,1-39.14H280c.16,4.3,1.06,32-2.28,41.79a.5.5,0,0,1-.48.34H261a3.37,3.37,0,0,0-3.25,2.42Z" fill="#231f20"/><path d="M304.49,179c0,6.6-2,8.58-4.63,8.58H289.49a3.49,3.49,0,0,0-3.28,2.29L285.07,193h16c4.1,0,7-6.21,7.14-12.81s0-35,0-35h-3.57S304.49,172.4,304.49,179Z" fill="#231f20"/><path d="M301.05,193.51h-16a.49.49,0,0,1-.41-.21.48.48,0,0,1-.06-.46l1.14-3.13a4,4,0,0,1,3.75-2.62h10.37c1,0,4.13,0,4.13-8.08,0-6.53.13-33.54.13-33.81a.5.5,0,0,1,.5-.5h3.57a.51.51,0,0,1,.5.5c0,.29.13,28.47,0,35S305.66,193.51,301.05,193.51Zm-15.27-1h15.27c3.52,0,6.5-5.53,6.64-12.32.12-6.05,0-30.66,0-34.49h-2.57c0,3.74-.13,27.27-.13,33.31s-1.68,9.08-5.13,9.08H289.49a3,3,0,0,0-2.81,2Z" fill="#231f20"/><path d="M248.66,71.08l-6.25,71.54A5.67,5.67,0,0,0,248,149h85.31a7,7,0,0,0,6.72-6.4l6.26-71.54a5.67,5.67,0,0,0-5.6-6.4H255.38A7,7,0,0,0,248.66,71.08Z" fill="#231f20"/><path d="M333.31,149.52H248a6,6,0,0,1-4.47-2,6.45,6.45,0,0,1-1.62-5L248.17,71a7.5,7.5,0,0,1,7.21-6.85h85.31a6,6,0,0,1,4.47,1.94,6.41,6.41,0,0,1,1.62,5l-6.25,71.54A7.53,7.53,0,0,1,333.31,149.52ZM255.38,65.18a6.49,6.49,0,0,0-6.22,5.94h0l-6.26,71.54a5.5,5.5,0,0,0,1.37,4.24,5,5,0,0,0,3.73,1.62h85.31a6.5,6.5,0,0,0,6.22-6L345.79,71a5.49,5.49,0,0,0-1.36-4.24,5,5,0,0,0-3.74-1.61Zm-6.71,5.9Z" fill="#231f20"/><path d="M248.38,70.79l-6,68.3a5.42,5.42,0,0,0,5.35,6.11H329.2a6.68,6.68,0,0,0,6.41-6.11l6-68.3a5.4,5.4,0,0,0-5.34-6.11H254.79A6.68,6.68,0,0,0,248.38,70.79Z" fill="#fff"/><path d="M329.2,145.7H247.75a5.73,5.73,0,0,1-4.28-1.86,6.16,6.16,0,0,1-1.56-4.79l6-68.31h0a7.19,7.19,0,0,1,6.91-6.56h81.46A5.73,5.73,0,0,1,340.53,66a6.15,6.15,0,0,1,1.56,4.79l-6,68.31A7.19,7.19,0,0,1,329.2,145.7ZM248.88,70.83l-6,68.31a5.25,5.25,0,0,0,1.3,4,4.75,4.75,0,0,0,3.55,1.53H329.2a6.18,6.18,0,0,0,5.92-5.65l6-68.31a5.18,5.18,0,0,0-1.29-4,4.75,4.75,0,0,0-3.55-1.53H254.79a6.17,6.17,0,0,0-5.91,5.65Z" fill="#231f20"/><path d="M243.41,127.62l-1,11.47a5.42,5.42,0,0,0,5.35,6.11H329.2a6.68,6.68,0,0,0,6.41-6.11l1-11.47Z" fill="#fff"/><path d="M329.2,145.7H247.75a5.73,5.73,0,0,1-4.28-1.86,6.16,6.16,0,0,1-1.56-4.79l1-11.47a.5.5,0,0,1,.5-.46h93.21a.5.5,0,0,1,.37.17.52.52,0,0,1,.13.38l-1,11.47A7.19,7.19,0,0,1,329.2,145.7Zm-85.33-17.58-1,11a5.25,5.25,0,0,0,1.3,4,4.75,4.75,0,0,0,3.55,1.53H329.2a6.18,6.18,0,0,0,5.92-5.65l.95-10.93Z" fill="#231f20"/><ellipse cx="289.24" cy="136.41" rx="4.08" ry="3.7" transform="translate(14.89 300.73) rotate(-56.17)" fill="#fff"/><path d="M288.9,140.88a3.88,3.88,0,0,1-2.9-1.26,4.18,4.18,0,0,1-1.06-3.25,4.84,4.84,0,0,1,4.65-4.42,3.88,3.88,0,0,1,2.9,1.26,4.22,4.22,0,0,1,1.06,3.25A4.85,4.85,0,0,1,288.9,140.88Zm.69-7.93a3.82,3.82,0,0,0-3.65,3.51,3.19,3.19,0,0,0,.79,2.48,2.9,2.9,0,0,0,2.17.94,3.83,3.83,0,0,0,3.65-3.51,3.2,3.2,0,0,0-.8-2.48A2.87,2.87,0,0,0,289.59,133Z" fill="#231f20"/><path d="M335.06,69.24H255.18a3.46,3.46,0,0,0-3.33,3.18l-4.22,48.18a2.82,2.82,0,0,0,2.78,3.19h79.88a3.47,3.47,0,0,0,3.33-3.19l4.22-48.18A2.81,2.81,0,0,0,335.06,69.24Z" fill="#231f20"/><path d="M268.54,75.13H260.6a.5.5,0,0,1,0-1h7.94a.5.5,0,0,1,0,1Z" fill="#fff"/><path d="M286.43,75.13H270.59a.5.5,0,0,1,0-1h15.84a.5.5,0,0,1,0,1Z" fill="#68e1fd" class="target-color"/><path d="M291.34,78.24H275.5a.5.5,0,0,1-.5-.5.5.5,0,0,1,.5-.5h15.84a.5.5,0,0,1,.5.5A.5.5,0,0,1,291.34,78.24Z" fill="#68e1fd" class="target-color"/><path d="M269.83,78.24h-7.94a.5.5,0,0,1-.5-.5.5.5,0,0,1,.5-.5h7.94a.5.5,0,0,1,.5.5A.5.5,0,0,1,269.83,78.24Z" fill="#fff"/><path d="M271.13,81.34h-7.94a.5.5,0,0,1-.5-.5.5.5,0,0,1,.5-.5h7.94a.51.51,0,0,1,.5.5A.5.5,0,0,1,271.13,81.34Z" fill="#fff"/><path d="M293.61,81.34H273.77a.5.5,0,0,1-.5-.5.51.51,0,0,1,.5-.5h19.84a.5.5,0,0,1,.5.5A.5.5,0,0,1,293.61,81.34Z" fill="#68e1fd" class="target-color"/><path d="M272.42,84.45h-7.94a.5.5,0,0,1,0-1h7.94a.5.5,0,0,1,0,1Z" fill="#fff"/><path d="M297.14,84.45H273.56a.5.5,0,0,1,0-1h23.58a.5.5,0,0,1,0,1Z" fill="#68e1fd" class="target-color"/><path d="M269.75,87.56h-7.94a.5.5,0,0,1-.5-.5.5.5,0,0,1,.5-.5h7.94a.5.5,0,0,1,.5.5A.51.51,0,0,1,269.75,87.56Z" fill="#fff"/><path d="M284.16,87.56H271.37a.5.5,0,0,1-.5-.5.5.5,0,0,1,.5-.5h12.79a.5.5,0,0,1,.5.5A.51.51,0,0,1,284.16,87.56Z" fill="#68e1fd" class="target-color"/><path d="M301.83,87.56H289a.5.5,0,0,1-.5-.5.5.5,0,0,1,.5-.5h12.79a.5.5,0,0,1,.5.5A.51.51,0,0,1,301.83,87.56Z" fill="#68e1fd" class="target-color"/><path d="M269.18,90.67h-7.94a.5.5,0,0,1-.5-.5.5.5,0,0,1,.5-.5h7.94a.5.5,0,0,1,.5.5A.51.51,0,0,1,269.18,90.67Z" fill="#fff"/><path d="M283.59,90.67H272.42a.5.5,0,0,1-.5-.5.5.5,0,0,1,.5-.5h11.17a.5.5,0,0,1,.5.5A.51.51,0,0,1,283.59,90.67Z" fill="#68e1fd" class="target-color"/><path d="M290,90.67h-4.57a.5.5,0,0,1-.5-.5.5.5,0,0,1,.5-.5H290a.5.5,0,0,1,.5.5A.51.51,0,0,1,290,90.67Z" fill="#68e1fd" class="target-color"/><path d="M268.61,93.77h-7.94a.5.5,0,0,1-.5-.5.5.5,0,0,1,.5-.5h7.94a.51.51,0,0,1,.5.5A.5.5,0,0,1,268.61,93.77Z" fill="#fff"/><path d="M287,93.77H270.71a.5.5,0,0,1-.5-.5.51.51,0,0,1,.5-.5H287a.51.51,0,0,1,.5.5A.5.5,0,0,1,287,93.77Z" fill="#68e1fd" class="target-color"/><path d="M296.89,93.77H289a.5.5,0,0,1-.5-.5.5.5,0,0,1,.5-.5h7.94a.51.51,0,0,1,.5.5A.5.5,0,0,1,296.89,93.77Z" fill="#68e1fd" class="target-color"/><path d="M262.45,96.88h-4.22a.5.5,0,0,1,0-1h4.22a.5.5,0,0,1,0,1Z" fill="#fff"/><path d="M284.33,96.88h-18.4a.5.5,0,0,1,0-1h18.4a.5.5,0,0,1,0,1Z" fill="#68e1fd" class="target-color"/><path d="M265.61,100h-7.95a.51.51,0,0,1-.5-.5.5.5,0,0,1,.5-.5h7.95a.5.5,0,0,1,.5.5A.51.51,0,0,1,265.61,100Z" fill="#fff"/><path d="M274.11,103.09H258.27a.5.5,0,0,1-.5-.5.5.5,0,0,1,.5-.5h15.84a.5.5,0,0,1,.5.5A.5.5,0,0,1,274.11,103.09Z" fill="#fff"/><path d="M287.76,103.09h-11a.5.5,0,0,1-.5-.5.51.51,0,0,1,.5-.5h11a.5.5,0,0,1,.5.5A.5.5,0,0,1,287.76,103.09Z" fill="#68e1fd" class="target-color"/><path d="M303,103.09H289.34a.5.5,0,0,1-.5-.5.5.5,0,0,1,.5-.5H303a.5.5,0,0,1,.5.5A.5.5,0,0,1,303,103.09Z" fill="#68e1fd" class="target-color"/><path d="M281.49,106.2h-23.1a.5.5,0,0,1,0-1h23.1a.5.5,0,0,1,0,1Z" fill="#fff"/><path d="M293.45,106.2H283.06a.5.5,0,0,1,0-1h10.39a.5.5,0,0,1,0,1Z" fill="#68e1fd" class="target-color"/><path d="M326.11,106.2H295.22a.5.5,0,0,1,0-1h30.89a.5.5,0,0,1,0,1Z" fill="#68e1fd" class="target-color"/><path d="M268.65,109.31H257.73a.5.5,0,0,1-.5-.5.5.5,0,0,1,.5-.5h10.92a.5.5,0,0,1,.5.5A.5.5,0,0,1,268.65,109.31Z" fill="#fff"/><path d="M278.87,109.31h-8.05a.51.51,0,0,1-.5-.5.5.5,0,0,1,.5-.5h8.05a.5.5,0,0,1,.5.5A.51.51,0,0,1,278.87,109.31Z" fill="#68e1fd" class="target-color"/><path d="M289.08,109.31H281a.51.51,0,0,1-.5-.5.5.5,0,0,1,.5-.5h8.05a.5.5,0,0,1,.5.5A.51.51,0,0,1,289.08,109.31Z" fill="#68e1fd" class="target-color"/><path d="M276.47,112.42H257.16a.5.5,0,0,1-.5-.5.5.5,0,0,1,.5-.5h19.31a.5.5,0,0,1,.5.5A.5.5,0,0,1,276.47,112.42Z" fill="#fff"/><path d="M288.51,112.42h-9.66a.51.51,0,0,1-.5-.5.5.5,0,0,1,.5-.5h9.66a.5.5,0,0,1,.5.5A.5.5,0,0,1,288.51,112.42Z" fill="#68e1fd" class="target-color"/><path d="M305.59,112.42H290.88a.5.5,0,0,1-.5-.5.5.5,0,0,1,.5-.5h14.71a.5.5,0,0,1,.5.5A.5.5,0,0,1,305.59,112.42Z" fill="#68e1fd" class="target-color"/><path d="M321.84,112.42h-14.7a.5.5,0,0,1-.5-.5.5.5,0,0,1,.5-.5h14.7a.5.5,0,0,1,.5.5A.5.5,0,0,1,321.84,112.42Z" fill="#68e1fd" class="target-color"/><path d="M273,115.52H261.47a.5.5,0,0,1-.5-.5.51.51,0,0,1,.5-.5H273a.5.5,0,0,1,.5.5A.5.5,0,0,1,273,115.52Z" fill="#fff"/><path d="M286.68,115.52H275.16a.5.5,0,0,1-.5-.5.5.5,0,0,1,.5-.5h11.52a.51.51,0,0,1,.5.5A.5.5,0,0,1,286.68,115.52Z" fill="#68e1fd" class="target-color"/><path d="M300.45,115.52H288.93a.5.5,0,0,1-.5-.5.51.51,0,0,1,.5-.5h11.52a.5.5,0,0,1,.5.5A.5.5,0,0,1,300.45,115.52Z" fill="#68e1fd" class="target-color"/><path d="M314.65,115.87H303.13a.5.5,0,0,1,0-1h11.52a.5.5,0,0,1,0,1Z" fill="#68e1fd" class="target-color"/><path d="M270.56,118.63h-7.94a.5.5,0,0,1,0-1h7.94a.5.5,0,0,1,0,1Z" fill="#fff"/><path d="M280.37,118.63h-7.95a.5.5,0,0,1,0-1h7.95a.5.5,0,0,1,0,1Z" fill="#68e1fd" class="target-color"/><path d="M298.65,118.94h0l-16.34-.31a.5.5,0,0,1-.49-.51.47.47,0,0,1,.51-.49l16.34.31a.52.52,0,0,1,.49.51A.5.5,0,0,1,298.65,118.94Z" fill="#68e1fd" class="target-color"/><path d="M311.08,84.45H300.35a.5.5,0,0,1,0-1h10.73a.5.5,0,0,1,0,1Z" fill="#68e1fd" class="target-color"/><path d="M319,84.48a28.69,28.69,0,0,1-3.84-.06.5.5,0,0,1,.24-1c.54,0,7.54,0,12.14,0h0a.5.5,0,0,1,0,1Z" fill="#68e1fd" class="target-color"/><path d="M310.51,78.24H294.92a.51.51,0,0,1-.5-.5.5.5,0,0,1,.5-.5h15.59a.5.5,0,0,1,.5.5A.51.51,0,0,1,310.51,78.24Z" fill="#68e1fd" class="target-color"/><path d="M329.15,78.24H313.64a.5.5,0,0,1-.5-.5.5.5,0,0,1,.5-.5h15.51a.5.5,0,0,1,.5.5A.5.5,0,0,1,329.15,78.24Z" fill="#68e1fd" class="target-color"/><path d="M296.75,75.14c-3.18,0-5.41,0-5.51,0a.5.5,0,0,1-.42-.57.51.51,0,0,1,.54-.42c.56,0,13.12,0,17.93,0h0a.5.5,0,0,1,.5.5.51.51,0,0,1-.5.5Z" fill="#68e1fd" class="target-color"/><path d="M313.54,75.13a.49.49,0,0,1-.46-.3.5.5,0,0,1,.26-.66c.12,0,.34-.15,10.87,0a.5.5,0,0,1,0,1h0c-3.8,0-10-.08-10.55,0Z" fill="#fff"/><path d="M294.49,96.88h-8a.5.5,0,0,1,0-1h8a.5.5,0,0,1,0,1Z" fill="#68e1fd" class="target-color"/><path d="M275.49,100h-5.91a.5.5,0,0,1-.5-.5.5.5,0,0,1,.5-.5h5.91a.5.5,0,0,1,.5.5A.51.51,0,0,1,275.49,100Z" fill="#68e1fd" class="target-color"/><path d="M291.78,100h-14a.51.51,0,0,1-.5-.5.5.5,0,0,1,.5-.5h14a.5.5,0,0,1,.5.5A.51.51,0,0,1,291.78,100Z" fill="#fff"/><path d="M321.81,100H294.59a.51.51,0,0,1-.5-.5.5.5,0,0,1,.5-.5h27.22a.5.5,0,0,1,.5.5A.5.5,0,0,1,321.81,100Z" fill="#68e1fd" class="target-color"/><rect x="107.59" y="185.46" width="93.64" height="7.08" fill="#fff"/><path d="M201.23,193.05H107.59a.51.51,0,0,1-.5-.5v-7.09a.51.51,0,0,1,.5-.5h93.64a.5.5,0,0,1,.5.5v7.09A.5.5,0,0,1,201.23,193.05Zm-93.14-1h92.64V186H108.09Z" fill="#231f20"/><rect x="58.22" y="205.59" width="20.96" height="49.8" fill="#fff"/><path d="M79.17,255.89h-21a.5.5,0,0,1-.5-.5v-49.8a.5.5,0,0,1,.5-.5h21a.5.5,0,0,1,.5.5v49.8A.5.5,0,0,1,79.17,255.89Zm-20.45-1h20v-48.8h-20Z" fill="#231f20"/><rect x="319.2" y="205.59" width="20.96" height="49.8" fill="#fff"/><path d="M340.15,255.89H319.2a.5.5,0,0,1-.5-.5v-49.8a.5.5,0,0,1,.5-.5h20.95a.5.5,0,0,1,.5.5v49.8A.5.5,0,0,1,340.15,255.89Zm-20.45-1h19.95v-48.8H319.7Z" fill="#231f20"/><rect x="58.22" y="205.59" width="20.96" height="12.89" fill="#231f20"/><path d="M79.17,219h-21a.5.5,0,0,1-.5-.5V205.59a.5.5,0,0,1,.5-.5h21a.5.5,0,0,1,.5.5v12.89A.5.5,0,0,1,79.17,219Zm-20.45-1h20V206.09h-20Z" fill="#231f20"/><rect x="319.2" y="205.59" width="20.96" height="12.89" fill="#231f20"/><path d="M340.15,219H319.2a.5.5,0,0,1-.5-.5V205.59a.5.5,0,0,1,.5-.5h20.95a.5.5,0,0,1,.5.5v12.89A.5.5,0,0,1,340.15,219Zm-20.45-1h19.95V206.09H319.7Z" fill="#231f20"/><rect x="45.43" y="193.15" width="307.5" height="12.44" fill="#fff"/><path d="M352.93,206.09H45.43a.51.51,0,0,1-.5-.5V193.15a.5.5,0,0,1,.5-.5h307.5a.5.5,0,0,1,.5.5v12.44A.5.5,0,0,1,352.93,206.09Zm-307-1h306.5V193.65H45.93Z" fill="#231f20"/><path d="M270.7,193.21h28.2c.51,0-3.25-12.13-12.31-12.47S270.7,193.21,270.7,193.21Z" fill="#231f20"/><path d="M298.9,193.71H270.7a.49.49,0,0,1-.44-.73c.29-.54,7.1-13.06,16.35-12.74,8.88.33,12.86,11.43,12.83,12.87A.55.55,0,0,1,298.9,193.71Zm-27.33-1H298.4c-.47-2.22-4.37-11.19-11.82-11.47h-.34C279,181.23,273.15,190.07,271.57,192.71Z" fill="#231f20"/><path d="M165,212.67s-45.11,10.82-46.48,18.8,2.17,23.58,2.17,23.58h116.2s5.52-32.86,0-45.34S165,212.67,165,212.67Z" fill="#231f20"/><path d="M236.93,255.55H120.73a.5.5,0,0,1-.49-.39c-.14-.64-3.54-15.79-2.17-23.78,1.41-8.2,45-18.75,46.86-19.19h0c.17,0,16.81-3.89,33.92-6.17,23.18-3.08,36.15-1.91,38.53,3.5,5.52,12.47.27,44.28,0,45.62A.5.5,0,0,1,236.93,255.55Zm-115.8-1H236.5c.61-3.85,5-33.19,0-44.64C234.31,205,221.35,204,199,207c-17,2.27-33.58,6.1-33.83,6.16-12.46,3-45,12.12-46.1,18.39C117.84,238.64,120.6,252.09,121.13,254.55Z" fill="#231f20"/><path d="M243.24,159.59l8.35,19.18s23.55,4.3,25.22,3.39,4.17-4.1,5.75-5.12,8.06-.12,9.18.68,3.71,4,3.43,5-1.86-.11-1.86-.11,2.36,1.59,1.88,2.85-5.49-2.05-6.42-2.05-3.43,6.94-6.21,9.34-33.75,6.92-36.63,6.24S227,175.19,227,175.19l3.24-14.58Z" fill="#fff"/><path d="M246.9,199.57a5.42,5.42,0,0,1-1.08-.08c-3-.71-17.56-21.63-19.21-24a.52.52,0,0,1-.08-.4l3.24-14.58a.51.51,0,0,1,.45-.39l13-1a.51.51,0,0,1,.5.3l8.24,18.94c11.14,2,23.49,3.89,24.63,3.39a17.1,17.1,0,0,0,3-2.67,18.87,18.87,0,0,1,2.69-2.43c1.8-1.18,8.54-.17,9.74.69,1,.72,4,4.13,3.62,5.55a1,1,0,0,1-.56.7,2.16,2.16,0,0,1,.57,2.09.93.93,0,0,1-.53.52c-.83.32-2.29-.35-4.42-1.4a13.47,13.47,0,0,0-1.88-.84,17,17,0,0,0-1.64,2.77c-1.19,2.24-2.67,5-4.31,6.44-1.85,1.59-13.57,3.6-18.52,4.39C257.66,198.59,249.94,199.57,246.9,199.57Zm-19.35-24.48c6.18,8.89,16.55,23,18.5,23.42,3,.71,33.71-4,36.18-6.13,1.49-1.28,2.92-4,4.07-6.15,1.31-2.46,1.8-3.31,2.47-3.31a7.35,7.35,0,0,1,2.38,1c1,.51,3.18,1.57,3.62,1.37.18-.53-.84-1.57-1.65-2.15L293,183a.5.5,0,0,1,.57-.82l.09.07a1.74,1.74,0,0,0,1,.38c.18-.66-2-3.63-3.22-4.52-.93-.67-7.21-1.59-8.62-.67a19.82,19.82,0,0,0-2.52,2.29,17.53,17.53,0,0,1-3.26,2.85c-1.74,1-21.59-2.61-25.55-3.34a.5.5,0,0,1-.37-.29l-8.2-18.85-12.26,1Z" fill="#231f20"/><path d="M146.25,161.07l-6,14.69s-17.93-10.21-22.71-10.93c-13.56-2.06-18.57,6.6-18.8,8.08s13.1-.11,13.1-.11-5.62,2-5.12,4.44c.27,1.37,6.6-1.93,7.63-1.59S142.51,197,152.08,199s31.53-45.82,31.53-45.82" fill="#fff"/><path d="M152.65,199.58a3.08,3.08,0,0,1-.68-.07c-7.54-1.61-25.3-14.43-33.83-20.6-2-1.43-3.71-2.67-4-2.8a12.86,12.86,0,0,0-2.81.85c-2.44.88-4,1.38-4.71,1a.84.84,0,0,1-.42-.58c-.31-1.54,1.16-2.83,2.66-3.72-4.1.41-9.56.76-10.43-.15a.71.71,0,0,1-.21-.63c.21-1.4,5.22-10.65,19.36-8.51,4.43.67,19.41,9,22.4,10.72l5.77-14.17a.5.5,0,1,1,.93.37l-6,14.7a.52.52,0,0,1-.3.28.49.49,0,0,1-.41,0c-.18-.11-17.91-10.18-22.55-10.88-13.38-2-17.63,6.28-18.16,7.52,1.14.45,7.21.09,12.48-.54a.5.5,0,0,1,.55.39.49.49,0,0,1-.32.58c-1.33.47-5,2.16-4.82,3.8.54.14,2.67-.63,3.83-1,1.91-.68,2.93-1,3.49-.85a42.81,42.81,0,0,1,4.22,2.93c7.81,5.65,26.12,18.86,33.45,20.44,7.54,1.6,24.92-32.33,31-45.54a.49.49,0,0,1,.66-.25.51.51,0,0,1,.25.66C183.18,155.34,162.76,199.58,152.65,199.58Z" fill="#231f20"/><path d="M204.73,96a8.46,8.46,0,0,0,2.9-1.86A13.53,13.53,0,0,0,210.38,90a44.84,44.84,0,0,0,3.4-25.15c-.53-3.68-1.28-8.8-3.48-11.89a8.31,8.31,0,0,0-4.16-2.9c-.45-.13-5.15.15-4.71.67a17.83,17.83,0,0,0-14.2-6.11c-4.52.18-10,2.15-12.93,5.75-1.2,1.48-1.64,2.64-3.57,3.33a10.78,10.78,0,0,1-7.78-.36c-.6-.25-4.5-1.62-4.48-2.16a13.48,13.48,0,0,0,7.61,12.55,18.79,18.79,0,0,1-8.19-1.29A14.39,14.39,0,0,0,172.77,71c2,2.84,4.64,5.25,6.61,8.25,2.09,3.18,4.1,6.49,6.87,9.14C190.62,92.53,198.49,98.37,204.73,96Z" fill="#fff"/><path d="M201.64,97.06c-6.24,0-12.87-5.6-15.73-8.34a43.38,43.38,0,0,1-6.19-8.07L179,79.5A42.53,42.53,0,0,0,175.4,75c-1-1.11-2-2.27-2.86-3.49a14.86,14.86,0,0,1-15.12-8.87.5.5,0,0,1,.65-.65,18.45,18.45,0,0,0,6.14,1.28A14,14,0,0,1,158,51.16a.49.49,0,0,1,.52-.48A.5.5,0,0,1,159,51a17,17,0,0,0,3.59,1.6l.6.24a10.29,10.29,0,0,0,7.42.35A5.06,5.06,0,0,0,173.18,51c.22-.31.46-.63.74-1,3.13-3.86,8.93-5.76,13.29-5.94A18.61,18.61,0,0,1,201.48,50a16.54,16.54,0,0,1,4.8-.44,8.79,8.79,0,0,1,4.43,3.09c2.28,3.2,3,8.35,3.57,12.11a45.6,45.6,0,0,1-3.45,25.43A14.18,14.18,0,0,1,208,94.52a9.15,9.15,0,0,1-3.08,2h0A9.15,9.15,0,0,1,201.64,97.06ZM172.77,70.47a.51.51,0,0,1,.41.21c.9,1.27,2,2.48,3,3.66A44,44,0,0,1,179.8,79l.76,1.16a43.67,43.67,0,0,0,6,7.89c3.23,3.09,11.45,10,18,7.54h0a8.09,8.09,0,0,0,2.74-1.75,13.1,13.1,0,0,0,2.63-4,44.49,44.49,0,0,0,3.37-24.86c-.53-3.66-1.25-8.67-3.4-11.68A7.76,7.76,0,0,0,206,50.54a18.07,18.07,0,0,0-4.1.37.43.43,0,0,1-.15.2.48.48,0,0,1-.7-.06h0a17.31,17.31,0,0,0-13.79-5.93c-4.13.17-9.62,2-12.56,5.57-.26.32-.49.63-.7.92a6,6,0,0,1-3.09,2.56,11.36,11.36,0,0,1-8.15-.37c-.1,0-.3-.12-.57-.22A30.47,30.47,0,0,1,159,52.22a13,13,0,0,0,7.32,11.06.5.5,0,0,1-.18,1,19.23,19.23,0,0,1-7.26-.91,13.84,13.84,0,0,0,13.85,7.15ZM159,51.2Z" fill="#231f20"/><path d="M172.31,81.44s-5.2,10.11-3.7,11.92,5.65,0,5.65,0" fill="#fff"/><path d="M170.8,94.68a3.21,3.21,0,0,1-2.57-1c-1.63-2,2.74-10.73,3.64-12.47a.5.5,0,0,1,.89.46C170.27,86.5,168.19,92.07,169,93c1,1.26,4,.36,5.06-.09a.5.5,0,0,1,.4.92A10.67,10.67,0,0,1,170.8,94.68Z" fill="#231f20"/><path d="M172.28,68.84c-3.61,3.67-1.71,10.39-1.19,14.84q1.09,9.38,2.63,18.7c.64,4,10.93,2.91,12.61,1.53l.11,15.85,21.91-3.71-3.53-19.8s-7,.81-11.89-6.83-6.24-25.28-6.24-25.28S175.81,65.26,172.28,68.84Z" fill="#fff"/><path d="M186.44,120.26a.55.55,0,0,1-.33-.12.5.5,0,0,1-.17-.38l-.1-15c-2.22.89-7.25,1.36-10.16.26a3.36,3.36,0,0,1-2.46-2.54c-1-6.19-1.9-12.49-2.63-18.73-.09-.74-.21-1.55-.34-2.4-.67-4.28-1.5-9.61,1.68-12.84,3.61-3.67,14.25-4.8,14.71-4.84a.48.48,0,0,1,.37.11.51.51,0,0,1,.17.35c0,.17,1.4,17.59,6.17,25,4.66,7.27,11.14,6.64,11.41,6.61a.51.51,0,0,1,.55.41L208.85,116a.52.52,0,0,1-.09.38.46.46,0,0,1-.32.2l-21.92,3.71Zm-.11-16.85a.52.52,0,0,1,.21,0,.49.49,0,0,1,.29.45l.1,15.27,20.84-3.53L204.4,96.78c-1.68,0-7.56-.33-11.89-7.09-4.49-7-6-22-6.28-25-2.16.27-10.66,1.51-13.59,4.49s-2,7.93-1.41,12c.14.87.27,1.69.36,2.45.72,6.22,1.61,12.5,2.62,18.68.12.76.74,1.35,1.82,1.76,3.12,1.17,8.88.36,10-.54A.48.48,0,0,1,186.33,103.41Z" fill="#231f20"/><path d="M173.36,97.7s5.17,2.46,7.21-2.85" fill="#fff"/><path d="M176,98.77a7.23,7.23,0,0,1-2.88-.62.5.5,0,1,1,.43-.9,5.75,5.75,0,0,0,4.06.22,4.53,4.53,0,0,0,2.47-2.8.51.51,0,0,1,.65-.28A.5.5,0,0,1,181,95a5.56,5.56,0,0,1-3,3.38A5.47,5.47,0,0,1,176,98.77Z" fill="#231f20"/><path d="M184.76,84.14A8.47,8.47,0,0,1,186,79.66a12.09,12.09,0,0,1,2-3.09,4.11,4.11,0,0,1,3.26-1.4,3.84,3.84,0,0,1,2.67,1.67,7.37,7.37,0,0,1,1.12,3,13.53,13.53,0,0,1-4.9,12.59l.31-.41" fill="#fff"/><path d="M190.15,93a.49.49,0,0,1-.4-.79l.31-.42a.49.49,0,0,1,.4-.2h0A13.08,13.08,0,0,0,194.55,80a6.63,6.63,0,0,0-1-2.82,3.36,3.36,0,0,0-2.31-1.46,3.61,3.61,0,0,0-2.85,1.24,11.56,11.56,0,0,0-1.87,3,8.28,8.28,0,0,0-1.24,4.22.49.49,0,0,1-.45.54.51.51,0,0,1-.54-.45,9,9,0,0,1,1.33-4.76,12.53,12.53,0,0,1,2-3.21,4.57,4.57,0,0,1,3.67-1.55,4.28,4.28,0,0,1,3,1.88,7.71,7.71,0,0,1,1.21,3.23,14.1,14.1,0,0,1-5.08,13.07A.5.5,0,0,1,190.15,93Z" fill="#231f20"/><ellipse cx="173.62" cy="76.37" rx="0.88" ry="2.25" transform="translate(-3.91 9.59) rotate(-3.13)" fill="#231f20"/><path d="M186.33,103.91a26.17,26.17,0,0,0,10.24-3.18s-2.06,9.73-9.87,11Z" fill="#231f20"/><path d="M186.7,112.2a.46.46,0,0,1-.32-.11.47.47,0,0,1-.18-.36l-.37-7.8a.5.5,0,0,1,.46-.52,26.11,26.11,0,0,0,10-3.11.5.5,0,0,1,.54,0,.49.49,0,0,1,.2.51c-.08.42-2.22,10.08-10.29,11.37Zm.15-7.84.32,6.75c5.44-1.21,7.82-6.92,8.6-9.36A27.25,27.25,0,0,1,186.85,104.36Z" fill="#231f20"/><path d="M240.72,212.67s-1.08-73.2-12.06-90S189.25,102,175.61,112,165,212.67,165,212.67Z" fill="#68e1fd" class="target-color"/><path d="M185.1,107.7s-16.27,1.36-25.67,9.15-19.18,47.64-19.18,47.64l30,6.76Z" fill="#68e1fd" class="target-color"/><path d="M165.84,187.43h0a.52.52,0,0,1-.49-.51c.35-21.5,1-57.66,1.26-58.28a.51.51,0,0,1,.67-.25.5.5,0,0,1,.27.59c-.22,1.52-.88,38.53-1.2,58A.5.5,0,0,1,165.84,187.43Z" fill="#231f20"/><path d="M217.35,112.26s13.69,1.55,20.93,16.58c3.93,8.16,14,34.49,14,34.49l-30.21,3.48Z" fill="#68e1fd" class="target-color"/><path d="M244.25,192.55H196.66a10.56,10.56,0,0,1-10.47-11.93l5.22-40.05a10.55,10.55,0,0,1,10.47-9.2h47.59a10.56,10.56,0,0,1,10.47,11.92l-5.22,40.06A10.57,10.57,0,0,1,244.25,192.55Z" fill="#231f20"/><path d="M244.25,193.05H196.66a11.06,11.06,0,0,1-11-12.49l5.22-40.06a11.09,11.09,0,0,1,11-9.63h47.59a11.06,11.06,0,0,1,11,12.49l-5.23,40.06A11.08,11.08,0,0,1,244.25,193.05Zm-42.37-61.18a10.09,10.09,0,0,0-10,8.76l-5.22,40.06a10.08,10.08,0,0,0,10,11.36h47.59a10.09,10.09,0,0,0,10-8.76l5.22-40.06a10,10,0,0,0-10-11.36Z" fill="#231f20"/><path d="M213.69,166.81s5.69,6.67,5.92,9.18-11.26,59.92-11.26,59.92l16.27-4.56s11.25-53.54,10.18-57.64-7.78-9.34-7.78-9.34Z" fill="#231f20"/><path d="M208.35,236.41a.55.55,0,0,1-.34-.13.54.54,0,0,1-.15-.47c4.62-23.05,11.42-58,11.25-59.78s-4.25-7.07-5.8-8.9a.5.5,0,0,1,.29-.81l13.33-2.44a.49.49,0,0,1,.39.09c.28.22,6.87,5.4,8,9.61s-9.72,55.69-10.18,57.88a.49.49,0,0,1-.35.38l-16.27,4.55A.34.34,0,0,1,208.35,236.41Zm6.27-69.26c1.51,1.82,5.29,6.6,5.49,8.79.22,2.42-9.66,52-11.11,59.27L224.2,231c3.16-15.08,11-53.87,10.12-57.12-.92-3.53-6.39-8.09-7.44-8.94Z" fill="#231f20"/><rect x="152.08" y="229.42" width="96.36" height="25.63" rx="6.76" fill="#231f20"/><path d="M241.67,255.55H158.84a7.27,7.27,0,0,1-7.26-7.26V236.18a7.26,7.26,0,0,1,7.26-7.26h82.83a7.26,7.26,0,0,1,7.26,7.26v12.11A7.27,7.27,0,0,1,241.67,255.55Zm-82.83-25.63a6.26,6.26,0,0,0-6.26,6.26v12.11a6.26,6.26,0,0,0,6.26,6.26h82.83a6.26,6.26,0,0,0,6.26-6.26V236.18a6.26,6.26,0,0,0-6.26-6.26Z" fill="#231f20"/><path d="M152,249.74a.5.5,0,0,1-.5-.5V236.5a7.72,7.72,0,0,1,7.57-7.69l50.34-.81,8.92-45.95c0-.11,2.15-10.42-3.6-13.24a.49.49,0,0,1-.23-.66.5.5,0,0,1,.67-.23c6.44,3.16,4.23,13.88,4.13,14.33l-9,46.33a.49.49,0,0,1-.48.4l-50.74.82a6.73,6.73,0,0,0-6.59,6.7v12.74A.5.5,0,0,1,152,249.74Z" fill="#fff"/><path d="M241.85,229.92h0l-16.79-.12a.47.47,0,0,1-.38-.19.5.5,0,0,1-.11-.41l3.38-16.63a.52.52,0,0,1,.59-.39.51.51,0,0,1,.39.59l-3.26,16,16.19.11a.5.5,0,0,1,0,1Z" fill="#fff"/><path d="M234.8,175.85h0a.49.49,0,0,1-.46-.53,8.43,8.43,0,0,0-4-7.73.51.51,0,0,1-.19-.68.5.5,0,0,1,.68-.19,9.43,9.43,0,0,1,4.51,8.67A.5.5,0,0,1,234.8,175.85Z" fill="#fff"/><path d="M76.47,185.88h-3.8a.5.5,0,0,1,0-1h3.8a3.44,3.44,0,1,0,0-6.87.51.51,0,0,1-.5-.5.5.5,0,0,1,.5-.5,4.44,4.44,0,1,1,0,8.87Z" fill="#d1d3d4"/><path d="M83.68,187.91c0,2.43-8.25,4.4-18.42,4.4s-18.43-2-18.43-4.4Z" fill="#fff"/><path d="M65.26,192.81c-9.18,0-18.93-1.72-18.93-4.9a.5.5,0,0,1,.5-.5H83.68a.5.5,0,0,1,.5.5C84.18,191.09,74.43,192.81,65.26,192.81Zm-17.73-4.4c1.2,1.56,7.72,3.4,17.73,3.4S81.79,190,83,188.41Z" fill="#d1d3d4"/><polygon points="74.7 187.91 55.81 187.91 52.2 173.82 78.31 173.82 74.7 187.91" fill="#fff"/><path d="M74.7,188.41H55.81a.49.49,0,0,1-.48-.38l-3.61-14.09a.51.51,0,0,1,.09-.43.5.5,0,0,1,.4-.19h26.1a.51.51,0,0,1,.4.19.54.54,0,0,1,.09.43L75.19,188A.51.51,0,0,1,74.7,188.41Zm-18.5-1H74.32l3.35-13.09H52.85Z" fill="#d1d3d4"/><rect x="310.67" y="185.23" width="40.33" height="7.08" transform="translate(661.67 377.55) rotate(-180)" fill="#fff"/><path d="M351,192.82H310.67a.5.5,0,0,1-.5-.5v-7.09a.5.5,0,0,1,.5-.5H351a.51.51,0,0,1,.5.5v7.09A.51.51,0,0,1,351,192.82Zm-39.83-1H350.5v-6.09H311.17Z" fill="#d1d3d4"/><rect x="316.31" y="178.15" width="46.26" height="7.08" transform="translate(678.87 363.38) rotate(-180)" fill="#fff"/><path d="M362.57,185.73H316.31a.5.5,0,0,1-.5-.5v-7.08a.5.5,0,0,1,.5-.5h46.26a.5.5,0,0,1,.5.5v7.08A.5.5,0,0,1,362.57,185.73Zm-45.76-1h45.26v-6.08H316.81Z" fill="#d1d3d4"/><rect x="312.17" y="171.06" width="46.26" height="7.08" transform="translate(670.6 349.21) rotate(-180)" fill="#fff"/><path d="M358.43,178.65H312.17a.5.5,0,0,1-.5-.5v-7.09a.5.5,0,0,1,.5-.5h46.26a.5.5,0,0,1,.5.5v7.09A.5.5,0,0,1,358.43,178.65Zm-45.76-1h45.26v-6.09H312.67Z" fill="#d1d3d4"/><rect x="335.3" y="185.23" width="21.19" height="7.08" transform="translate(691.79 377.55) rotate(-180)" fill="#231f20"/><path d="M356.49,192.82H335.3a.5.5,0,0,1-.5-.5v-7.09a.5.5,0,0,1,.5-.5h21.19a.5.5,0,0,1,.5.5v7.09A.5.5,0,0,1,356.49,192.82Zm-20.69-1H356v-6.09H335.8Z" fill="#231f20"/><rect x="338.26" y="178.15" width="24.3" height="7.08" transform="translate(700.83 363.38) rotate(-180)" fill="#231f20"/><path d="M362.57,185.73H338.26a.5.5,0,0,1-.5-.5v-7.08a.5.5,0,0,1,.5-.5h24.31a.5.5,0,0,1,.5.5v7.08A.5.5,0,0,1,362.57,185.73Zm-23.81-1h23.31v-6.08H338.76Z" fill="#231f20"/><rect x="336.09" y="171.06" width="24.3" height="7.08" transform="translate(696.48 349.21) rotate(-180)" fill="#231f20"/><path d="M360.39,178.65h-24.3a.5.5,0,0,1-.5-.5v-7.09a.5.5,0,0,1,.5-.5h24.3a.5.5,0,0,1,.5.5v7.09A.5.5,0,0,1,360.39,178.65Zm-23.8-1h23.3v-6.09h-23.3Z" fill="#231f20"/></g></svg>